<?xml version="1.0" standalone="no"?>
<!DOCTYPE svg PUBLIC "-//W3C//DTD SVG 20010904//EN"
 "http://www.w3.org/TR/2001/REC-SVG-20010904/DTD/svg10.dtd">
<svg version="1.0" xmlns="http://www.w3.org/2000/svg"
 width="643.000000pt" height="600.000000pt" viewBox="0 0 643.000000 600.000000"
 preserveAspectRatio="xMidYMid meet">

<g transform="translate(0.000000,600.000000) scale(0.100000,-0.100000)"
fill="#000000" stroke="none">
<path d="M3190 5489 c-198 -18 -450 -75 -635 -144 -325 -120 -643 -323 -890
-570 -143 -143 -218 -233 -329 -398 -551 -818 -554 -1910 -8 -2743 107 -162
185 -258 321 -395 202 -202 404 -347 671 -480 170 -85 289 -129 482 -179 191
-49 325 -69 520 -76 693 -28 1369 236 1850 723 154 156 227 243 316 376 176
263 277 488 352 782 59 228 74 354 74 610 1 288 -27 480 -105 738 -247 808
-895 1442 -1709 1672 -284 80 -621 111 -910 84z m528 -164 c157 -20 398 -81
549 -140 807 -316 1379 -1055 1483 -1915 15 -123 15 -418 0 -540 -95 -783
-579 -1477 -1270 -1821 -255 -127 -543 -215 -765 -234 -38 -4 -81 -8 -94 -11
-24 -5 -24 -5 -8 20 16 23 15 28 -3 68 -11 24 -20 58 -20 76 0 31 4 35 68 64
37 17 89 36 116 43 42 9 51 16 58 40 6 24 3 34 -19 57 -32 34 -60 35 -157 9
l-69 -19 7 56 c8 68 23 86 84 102 26 6 58 18 71 27 16 10 44 15 81 14 48 -1
61 2 83 23 34 31 34 50 1 93 l-26 34 -81 -2 c-92 -2 -148 -18 -284 -81 -100
-47 -116 -69 -95 -126 6 -15 13 -99 16 -187 5 -144 19 -245 41 -299 8 -18 2
-19 -176 -13 -113 4 -225 13 -290 25 -138 25 -380 94 -386 109 -5 14 59 115
108 171 l31 34 55 -11 c52 -10 61 -9 110 14 44 20 57 32 73 67 11 24 20 55 20
69 0 51 -86 149 -132 149 -40 0 -304 -309 -356 -417 -9 -18 -21 -33 -28 -33
-23 0 -197 85 -301 148 -225 133 -497 376 -650 577 -329 435 -484 897 -485
1440 0 380 74 701 237 1030 311 630 901 1098 1578 1249 63 14 122 26 130 26
11 0 -1 -18 -33 -53 -181 -194 -566 -824 -644 -1052 -46 -135 -128 -312 -181
-390 -15 -22 -49 -85 -76 -140 -33 -68 -73 -129 -124 -190 -42 -49 -104 -137
-139 -195 -48 -80 -77 -117 -122 -153 -61 -49 -89 -95 -79 -128 10 -30 66 -67
151 -98 44 -16 116 -45 160 -65 108 -47 402 -150 699 -242 238 -75 461 -159
604 -228 75 -36 131 -50 321 -82 126 -21 185 -40 395 -129 88 -37 189 -74 225
-82 36 -8 90 -24 120 -35 30 -11 92 -29 137 -41 74 -19 92 -20 180 -10 110 12
121 8 189 -66 34 -38 110 -71 161 -71 41 0 81 34 104 87 14 33 16 49 9 63 -6
10 -10 30 -10 43 0 21 6 26 36 32 l37 6 -7 61 c-6 59 -37 138 -63 160 -7 5
-20 7 -29 4 -13 -5 -15 -15 -11 -47 l5 -41 -41 7 c-23 4 -51 8 -62 9 -20 3
-113 39 -147 57 -10 5 -26 9 -36 9 -11 0 -33 7 -50 16 -40 19 -72 10 -72 -20
0 -24 46 -86 64 -86 6 -1 31 -18 55 -39 43 -38 43 -38 26 -65 -21 -32 -32 -33
-57 -1 -11 14 -28 24 -41 23 -35 -2 -151 68 -144 87 8 20 -20 69 -68 119 l-48
48 13 99 c14 109 10 164 -21 319 -11 58 -25 128 -31 155 -5 28 -14 54 -19 59
-5 6 -9 18 -9 29 0 43 -197 493 -290 663 -37 68 -143 323 -170 409 -7 22 -45
105 -85 185 -40 80 -91 189 -114 243 -69 161 -163 324 -287 493 -62 85 -74 94
-74 60 0 -14 -4 -27 -9 -30 -5 -4 -6 9 -1 29 8 33 5 39 -38 83 -26 27 -74 64
-106 83 -107 62 -100 64 219 67 129 1 244 -3 323 -13z m-416 -287 c-7 -7 -12
-8 -12 -2 0 6 3 14 7 17 3 4 9 5 12 2 2 -3 -1 -11 -7 -17z m-410 -545 c35 -40
107 -209 112 -262 2 -30 10 -59 15 -64 16 -16 13 -27 -4 -21 -11 5 -15 -1 -15
-22 0 -33 -53 -95 -102 -120 -37 -19 -68 -12 -105 22 -15 14 -40 28 -56 31
-32 6 -44 25 -45 70 0 17 -10 49 -21 70 -14 28 -19 54 -16 84 4 52 17 79 74
153 41 53 52 60 111 69 14 3 28 5 31 6 3 0 13 -7 21 -16z m545 -518 c3 -12
-14 -42 -20 -35 -3 3 -8 16 -12 28 -6 19 -4 23 11 20 9 -1 19 -7 21 -13z
m-263 -130 c-4 -8 -7 -15 -9 -15 -2 0 -5 7 -9 15 -3 9 0 15 9 15 9 0 12 -6 9
-15z m210 -185 c2 -14 6 -32 10 -40 3 -8 17 -50 31 -93 14 -43 34 -95 44 -115
10 -21 33 -66 50 -102 18 -36 44 -87 58 -115 14 -27 34 -77 43 -110 9 -33 26
-80 37 -105 30 -67 51 -136 68 -224 8 -43 17 -81 20 -84 3 -3 12 3 20 14 24
32 17 7 -10 -37 -14 -22 -30 -37 -35 -34 -6 3 -16 3 -22 -2 -12 -7 -26 -9 -85
-13 -10 -1 -25 -4 -33 -7 -8 -3 -35 -7 -60 -9 -25 -2 -68 -10 -97 -17 -54 -14
-83 -8 -83 18 0 8 -9 15 -21 15 -12 0 -18 -4 -13 -11 4 -7 -11 0 -32 15 -21
14 -44 26 -51 26 -7 0 -13 11 -13 24 0 13 -7 27 -16 30 -13 5 -15 2 -11 -16 5
-20 4 -21 -6 -7 -7 9 -19 14 -27 11 -8 -3 -12 -1 -8 3 4 4 -7 16 -25 25 -23
13 -32 24 -31 43 0 21 -3 24 -21 17 -12 -5 -28 -4 -36 1 -11 7 -9 9 9 9 29 0
28 16 -2 35 -13 9 -26 25 -29 37 -4 15 -12 19 -25 16 -11 -3 -26 -2 -33 3 -10
6 -3 9 19 9 l33 0 -23 23 c-29 28 -33 56 -7 50 19 -5 27 16 12 31 -14 14 -11
36 5 34 12 -2 17 4 17 22 0 14 -4 28 -10 32 -5 4 0 8 13 8 23 0 30 14 12 25
-6 4 -7 11 -4 17 4 6 0 15 -7 20 -10 7 -7 7 9 3 16 -5 22 -2 22 9 0 8 -4 17
-10 21 -5 3 0 15 11 26 15 15 18 24 10 32 -6 6 -11 22 -11 36 0 24 1 24 15 5
17 -23 20 -2 3 25 -9 15 -7 30 12 75 35 88 87 181 99 179 6 -2 8 4 4 13 -3 8
2 23 11 32 9 9 33 40 54 69 20 28 55 74 77 100 l40 49 13 -61 c7 -33 14 -71
16 -85z m427 -921 c-12 -20 -21 -27 -21 -18 0 9 7 22 15 29 8 7 15 20 16 29 0
9 3 11 5 5 3 -7 -4 -27 -15 -45z m1177 -652 c12 -1 21 -4 19 -7 -1 -3 -11 -22
-22 -44 -19 -36 -22 -38 -59 -33 -44 6 -52 12 -61 48 -6 23 -2 28 22 37 15 6
39 9 53 6 14 -3 35 -6 48 -7z m-2076 -954 c10 -9 18 -20 18 -25 0 -13 -63 -48
-88 -48 -23 0 -23 0 8 45 17 25 34 45 37 45 4 0 15 -7 25 -17z"/>
<path d="M2170 2361 c-8 -5 -51 -12 -95 -15 -179 -16 -356 -57 -398 -95 -21
-18 -47 -74 -47 -102 0 -26 19 -58 53 -87 15 -13 27 -28 27 -34 0 -16 85 -139
113 -166 42 -38 95 -55 151 -47 107 14 178 76 257 225 22 40 24 57 23 160 -1
130 -12 170 -46 170 -13 0 -30 -4 -38 -9z m-50 -230 c0 -28 -9 -50 -34 -83
-47 -61 -76 -78 -135 -78 -45 0 -56 5 -108 48 -98 82 -103 99 -32 109 19 2 86
13 149 23 167 26 160 27 160 -19z"/>
<path d="M4644 1862 c-76 -8 -123 -102 -109 -221 5 -48 12 -64 38 -88 69 -65
193 -83 257 -39 41 28 64 71 77 142 17 97 -2 98 -82 4 -53 -63 -75 -81 -75
-64 0 3 8 18 19 32 33 47 46 107 33 151 -7 21 -19 44 -27 51 -21 18 -96 36
-131 32z m25 -113 c7 -20 -5 -138 -15 -148 -3 -3 -14 5 -27 17 -27 27 -29 87
-4 125 21 33 35 34 46 6z"/>
<path d="M2095 1781 c-37 -23 -75 -64 -105 -114 -30 -51 -24 -121 14 -172 15
-19 32 -35 38 -35 6 0 26 -11 44 -25 53 -40 84 -28 50 20 -22 32 -67 146 -63
158 2 7 11 -2 20 -20 38 -72 127 -124 179 -104 36 14 84 74 92 115 11 59 -8
100 -67 140 -46 31 -113 55 -157 56 -8 0 -28 -8 -45 -19z m133 -81 c31 -19 55
-57 45 -72 -9 -17 -45 -6 -99 28 -51 33 -54 37 -37 49 25 20 53 18 91 -5z"/>
<path d="M4333 1610 c-19 -8 -23 -17 -23 -53 0 -53 30 -97 65 -97 30 0 68 39
60 60 -4 8 -9 29 -12 45 -10 54 -36 67 -90 45z"/>
<path d="M2356 1459 c-30 -24 -61 -80 -81 -146 -12 -39 -11 -52 2 -93 9 -29
27 -56 43 -69 34 -24 147 -64 161 -56 16 10 10 33 -13 52 -13 10 -39 38 -59
63 -61 77 -63 91 -7 41 45 -40 96 -59 143 -54 47 5 60 15 86 64 24 49 24 105
0 145 -40 66 -216 99 -275 53z m147 -62 c43 -18 64 -44 49 -59 -9 -9 -27 -9
-75 1 -86 18 -92 22 -67 49 24 25 47 28 93 9z"/>
<path d="M4448 1427 c-37 -10 -43 -20 -40 -60 5 -47 161 -207 202 -207 24 0
49 31 56 69 6 30 5 33 -13 27 -17 -6 -27 7 -67 89 -52 105 -54 106 -138 82z"/>
<path d="M4038 1339 c-30 -17 -24 -61 32 -214 29 -81 67 -155 92 -182 27 -29
68 -29 89 0 31 42 32 65 5 120 -14 28 -28 69 -31 89 -6 31 -3 41 19 62 16 17
36 26 58 26 46 1 73 22 59 48 -21 39 -90 36 -149 -7 l-28 -20 -10 28 c-7 16
-26 34 -46 44 -41 19 -65 21 -90 6z"/>
<path d="M3122 1118 c-39 -9 -42 -11 -36 -36 4 -15 9 -30 13 -34 3 -3 57 -8
120 -10 110 -3 114 -2 122 20 5 12 6 29 3 37 -12 31 -130 44 -222 23z"/>
<path d="M2894 4322 c-12 -9 -36 -25 -53 -34 -24 -13 -31 -24 -31 -47 0 -39
13 -45 54 -26 26 12 39 14 54 6 11 -6 22 -7 26 -4 3 3 6 0 6 -7 0 -7 2 -11 5
-8 9 9 -7 38 -21 38 -19 0 -18 19 3 42 13 14 15 23 7 35 -15 24 -26 25 -50 5z"/>
<path d="M3310 3581 c0 -5 5 -13 10 -16 6 -3 10 -2 10 4 0 5 -4 13 -10 16 -5
3 -10 2 -10 -4z"/>
<path d="M3190 3500 c0 -5 5 -10 10 -10 6 0 10 5 10 10 0 6 -4 10 -10 10 -5 0
-10 -4 -10 -10z"/>
<path d="M3210 3460 c0 -5 5 -10 10 -10 6 0 10 5 10 10 0 6 -4 10 -10 10 -5 0
-10 -4 -10 -10z"/>
<path d="M3116 3441 c-4 -5 -2 -12 3 -15 5 -4 12 -2 15 3 4 5 2 12 -3 15 -5 4
-12 2 -15 -3z"/>
<path d="M3130 3402 c0 -5 7 -13 16 -16 10 -4 14 -1 12 6 -5 15 -28 23 -28 10z"/>
<path d="M3186 3398 c3 -4 9 -8 15 -8 5 0 9 4 9 8 0 5 -7 9 -15 9 -8 0 -12 -4
-9 -9z"/>
<path d="M3090 3384 c0 -8 5 -12 10 -9 6 4 8 11 5 16 -9 14 -15 11 -15 -7z"/>
<path d="M3375 3370 c3 -5 8 -10 11 -10 2 0 4 5 4 10 0 6 -5 10 -11 10 -5 0
-7 -4 -4 -10z"/>
<path d="M3270 3361 c0 -5 5 -13 10 -16 6 -3 10 -2 10 4 0 5 -4 13 -10 16 -5
3 -10 2 -10 -4z"/>
<path d="M3110 3352 c0 -12 19 -26 26 -19 2 2 -2 10 -11 17 -9 8 -15 8 -15 2z"/>
<path d="M3162 3348 c5 -15 28 -23 28 -10 0 5 -7 13 -16 16 -10 4 -14 1 -12
-6z"/>
<path d="M3065 3330 c-3 -5 -2 -10 4 -10 5 0 13 5 16 10 3 6 2 10 -4 10 -5 0
-13 -4 -16 -10z"/>
<path d="M3395 3320 c3 -5 8 -10 11 -10 2 0 4 5 4 10 0 6 -5 10 -11 10 -5 0
-7 -4 -4 -10z"/>
<path d="M3290 3310 c0 -5 5 -10 11 -10 5 0 7 5 4 10 -3 6 -8 10 -11 10 -2 0
-4 -4 -4 -10z"/>
<path d="M3240 3300 c0 -13 18 -22 24 -11 3 5 -1 11 -9 15 -8 3 -15 1 -15 -4z"/>
<path d="M3092 3291 c2 -7 7 -12 11 -12 12 1 9 15 -3 20 -7 2 -11 -2 -8 -8z"/>
<path d="M3190 3296 c0 -2 7 -7 16 -10 8 -3 12 -2 9 4 -6 10 -25 14 -25 6z"/>
<path d="M3277 3249 c7 -7 15 -10 18 -7 3 3 -2 9 -12 12 -14 6 -15 5 -6 -5z"/>
<path d="M3076 3226 c3 -9 11 -16 16 -16 13 0 5 23 -10 28 -7 2 -10 -2 -6 -12z"/>
<path d="M3160 3206 c0 -2 7 -6 15 -10 8 -3 15 -1 15 4 0 6 -7 10 -15 10 -8 0
-15 -2 -15 -4z"/>
<path d="M3310 3206 c0 -2 7 -7 16 -10 8 -3 12 -2 9 4 -6 10 -25 14 -25 6z"/>
<path d="M3105 3190 c-8 -13 15 -24 27 -12 6 6 4 11 -6 15 -8 3 -18 2 -21 -3z"/>
<path d="M3540 3180 c0 -5 5 -10 11 -10 5 0 7 5 4 10 -3 6 -8 10 -11 10 -2 0
-4 -4 -4 -10z"/>
<path d="M3056 3165 c4 -8 12 -15 20 -15 19 0 18 16 -2 24 -22 9 -24 8 -18 -9z"/>
<path d="M3200 3160 c0 -6 7 -10 15 -10 8 0 15 2 15 4 0 2 -7 6 -15 10 -8 3
-15 1 -15 -4z"/>
<path d="M3445 3160 c3 -5 8 -10 11 -10 2 0 4 5 4 10 0 6 -5 10 -11 10 -5 0
-7 -4 -4 -10z"/>
<path d="M3145 3140 c3 -5 13 -10 21 -10 8 0 12 5 9 10 -3 6 -13 10 -21 10 -8
0 -12 -4 -9 -10z"/>
<path d="M3090 3121 c0 -5 7 -11 15 -15 9 -3 15 0 15 9 0 8 -7 15 -15 15 -8 0
-15 -4 -15 -9z"/>
<path d="M3246 3115 c4 -8 11 -15 16 -15 6 0 5 6 -2 15 -7 8 -14 15 -16 15 -2
0 -1 -7 2 -15z"/>
<path d="M3040 3111 c0 -5 6 -14 14 -20 11 -9 16 -9 21 0 4 6 1 15 -6 20 -18
11 -29 11 -29 0z"/>
<path d="M3182 3098 c3 -7 13 -14 24 -15 10 -2 13 0 6 3 -6 3 -10 10 -6 15 3
5 -2 9 -11 9 -9 0 -15 -6 -13 -12z"/>
<path d="M3130 3075 c7 -8 19 -15 27 -15 13 0 13 3 3 15 -7 8 -19 15 -27 15
-13 0 -13 -3 -3 -15z"/>
<path d="M3407 3079 c7 -7 15 -10 18 -7 3 3 -2 9 -12 12 -14 6 -15 5 -6 -5z"/>
<path d="M3280 3069 c0 -5 5 -7 10 -4 6 3 10 8 10 11 0 2 -4 4 -10 4 -5 0 -10
-5 -10 -11z"/>
<path d="M3082 3058 c6 -18 28 -21 28 -4 0 9 -7 16 -16 16 -9 0 -14 -5 -12
-12z"/>
<path d="M3026 3051 c-9 -15 23 -36 35 -24 8 8 5 14 -9 22 -12 6 -23 7 -26 2z"/>
<path d="M3220 3051 c0 -11 26 -22 34 -14 3 3 3 10 0 14 -7 12 -34 11 -34 0z"/>
<path d="M3444 3035 c11 -8 22 -12 25 -9 6 6 -19 24 -34 24 -5 -1 -1 -7 9 -15z"/>
<path d="M3172 3028 c6 -18 28 -21 28 -4 0 9 -7 16 -16 16 -9 0 -14 -5 -12
-12z"/>
<path d="M3393 3023 c9 -9 19 -14 23 -11 10 10 -6 28 -24 28 -15 0 -15 -1 1
-17z"/>
<path d="M3122 3014 c1 -9 9 -19 16 -22 9 -3 13 2 10 14 -1 9 -9 19 -16 22 -9
3 -13 -2 -10 -14z"/>
<path d="M3326 3022 c-3 -6 1 -13 10 -16 23 -9 28 -2 10 13 -8 7 -17 8 -20 3z"/>
<path d="M3066 3001 c-7 -10 22 -37 30 -28 9 8 -3 37 -15 37 -5 0 -12 -4 -15
-9z"/>
<path d="M3265 3000 c-3 -5 1 -10 9 -10 9 0 16 5 16 10 0 6 -4 10 -9 10 -6 0
-13 -4 -16 -10z"/>
<path d="M3535 3000 c3 -5 11 -10 16 -10 6 0 7 5 4 10 -3 6 -11 10 -16 10 -6
0 -7 -4 -4 -10z"/>
<path d="M3206 2992 c-7 -12 22 -38 31 -28 4 3 0 14 -9 22 -9 10 -18 12 -22 6z"/>
<path d="M3485 2990 c3 -5 13 -10 21 -10 8 0 12 5 9 10 -3 6 -13 10 -21 10 -8
0 -12 -4 -9 -10z"/>
<path d="M3007 2984 c-14 -14 -6 -24 19 -24 16 0 24 5 22 13 -5 14 -31 21 -41
11z"/>
<path d="M3433 2973 c9 -9 19 -14 23 -11 10 10 -6 28 -24 28 -15 0 -15 -1 1
-17z"/>
<path d="M3162 2969 c2 -7 10 -15 17 -17 8 -3 12 1 9 9 -2 7 -10 15 -17 17 -8
3 -12 -1 -9 -9z"/>
<path d="M3370 2971 c0 -5 7 -12 16 -15 14 -5 15 -4 4 9 -14 17 -20 19 -20 6z"/>
<path d="M3306 2962 c-3 -6 1 -13 10 -16 23 -9 28 -2 10 13 -8 7 -17 8 -20 3z"/>
<path d="M3102 2948 c3 -7 13 -15 22 -16 12 -3 17 1 14 10 -3 7 -13 15 -22 16
-12 3 -17 -1 -14 -10z"/>
<path d="M3525 2950 c-3 -5 1 -13 10 -16 22 -9 29 1 11 15 -10 8 -16 9 -21 1z"/>
<path d="M3575 2950 c3 -5 11 -10 16 -10 6 0 7 5 4 10 -3 6 -11 10 -16 10 -6
0 -7 -4 -4 -10z"/>
<path d="M3050 2939 c0 -5 -6 -7 -12 -3 -7 4 -5 -1 4 -11 21 -23 57 -13 38 10
-14 17 -30 20 -30 4z"/>
<path d="M3252 2939 c2 -7 10 -15 17 -17 8 -3 12 1 9 9 -2 7 -10 15 -17 17 -8
3 -12 -1 -9 -9z"/>
<path d="M3465 2930 c3 -5 13 -10 21 -10 8 0 14 5 14 10 0 6 -9 10 -21 10 -11
0 -17 -4 -14 -10z"/>
<path d="M2986 2914 c-8 -22 -8 -24 8 -24 8 0 16 -10 18 -22 3 -23 42 -35 54
-17 8 14 -16 31 -34 24 -10 -4 -11 1 -7 16 10 32 -27 54 -39 23z"/>
<path d="M3202 2919 c2 -7 10 -15 17 -17 8 -3 12 1 9 9 -2 7 -10 15 -17 17 -8
3 -12 -1 -9 -9z"/>
<path d="M3410 2915 c7 -8 17 -12 22 -9 6 4 5 10 -3 15 -22 14 -33 10 -19 -6z"/>
<path d="M3145 2910 c-4 -6 -3 -14 0 -20 9 -15 35 -12 35 4 0 17 -27 29 -35
16z"/>
<path d="M3345 2900 c3 -5 13 -10 21 -10 8 0 12 5 9 10 -3 6 -13 10 -21 10 -8
0 -12 -4 -9 -10z"/>
<path d="M3620 2906 c0 -2 7 -7 16 -10 8 -3 12 -2 9 4 -6 10 -25 14 -25 6z"/>
<path d="M3080 2885 c0 -19 24 -30 41 -19 9 5 7 11 -6 21 -24 17 -35 17 -35
-2z"/>
<path d="M3293 2883 c9 -9 19 -14 23 -11 10 10 -6 28 -24 28 -15 0 -15 -1 1
-17z"/>
<path d="M3242 2869 c2 -7 10 -15 17 -17 8 -3 12 1 9 9 -2 7 -10 15 -17 17 -8
3 -12 -1 -9 -9z"/>
<path d="M3182 2853 c2 -10 11 -19 21 -21 24 -5 21 15 -4 28 -18 10 -20 9 -17
-7z"/>
<path d="M3468 2863 c7 -3 16 -2 19 1 4 3 -2 6 -13 5 -11 0 -14 -3 -6 -6z"/>
<path d="M3400 2845 c7 -8 16 -12 21 -9 13 8 1 24 -18 24 -13 0 -13 -3 -3 -15z"/>
<path d="M3622 2848 c5 -15 28 -23 28 -10 0 5 -7 13 -16 16 -10 4 -14 1 -12
-6z"/>
<path d="M3125 2841 c-8 -15 3 -31 21 -31 9 0 14 7 12 17 -4 20 -24 28 -33 14z"/>
<path d="M3332 2838 c5 -15 28 -23 28 -10 0 5 -7 13 -16 16 -10 4 -14 1 -12
-6z"/>
<path d="M3562 2839 c2 -7 10 -15 17 -17 8 -3 12 1 9 9 -2 7 -10 15 -17 17 -8
3 -12 -1 -9 -9z"/>
<path d="M3056 2816 c6 -15 34 -30 42 -22 10 11 -9 36 -27 36 -14 0 -19 -5
-15 -14z"/>
<path d="M3270 2821 c0 -11 26 -22 34 -14 3 3 3 10 0 14 -7 12 -34 11 -34 0z"/>
<path d="M3506 2823 c5 -5 12 -12 16 -18 4 -6 8 -2 8 8 0 9 -7 17 -17 17 -9 0
-12 -3 -7 -7z"/>
<path d="M3215 2810 c-3 -6 1 -13 10 -16 19 -8 30 0 20 15 -8 14 -22 14 -30 1z"/>
<path d="M3435 2810 c-4 -6 -4 -10 -1 -10 2 0 11 -3 20 -6 9 -3 16 -2 16 4 0
14 -28 23 -35 12z"/>
<path d="M3660 2796 c0 -9 5 -16 10 -16 6 0 10 4 10 9 0 6 -4 13 -10 16 -5 3
-10 -1 -10 -9z"/>
<path d="M3156 2791 c-7 -10 22 -37 30 -28 9 8 -3 37 -15 37 -5 0 -12 -4 -15
-9z"/>
<path d="M3370 2791 c0 -14 18 -23 31 -15 8 4 7 9 -2 15 -18 11 -29 11 -29 0z"/>
<path d="M3597 2793 c-4 -6 0 -16 8 -23 21 -17 28 -8 11 15 -8 11 -15 14 -19
8z"/>
<path d="M3305 2780 c-8 -13 20 -24 36 -15 8 6 7 10 -2 16 -18 11 -26 11 -34
-1z"/>
<path d="M3102 2763 c4 -21 33 -25 33 -3 0 8 -8 16 -18 18 -14 3 -18 -1 -15
-15z"/>
<path d="M3546 2772 c-3 -6 -1 -14 5 -17 15 -10 25 3 12 16 -7 7 -13 7 -17 1z"/>
<path d="M3250 2756 c0 -10 9 -16 21 -16 24 0 21 23 -4 28 -10 2 -17 -3 -17
-12z"/>
<path d="M3480 2755 c0 -8 7 -15 15 -15 8 0 15 4 15 9 0 5 -7 11 -15 15 -9 3
-15 0 -15 -9z"/>
<path d="M3190 2736 c0 -17 27 -29 35 -16 4 6 3 15 0 20 -9 15 -35 12 -35 -4z"/>
<path d="M3409 2736 c16 -19 44 -21 39 -3 -3 6 -15 14 -28 15 -21 3 -22 2 -11
-12z"/>
<path d="M3136 2733 c-11 -12 -6 -31 10 -37 21 -8 34 1 28 19 -6 16 -29 26
-38 18z"/>
<path d="M3346 2731 c-4 -5 3 -15 15 -21 18 -10 20 -9 17 6 -4 20 -23 30 -32
15z"/>
<path d="M3642 2729 c2 -7 10 -15 17 -17 8 -3 12 1 9 9 -2 7 -10 15 -17 17 -8
3 -12 -1 -9 -9z"/>
<path d="M3590 2716 c0 -8 5 -18 10 -21 6 -3 10 1 10 9 0 8 -4 18 -10 21 -5 3
-10 -1 -10 -9z"/>
<path d="M3285 2710 c-3 -5 -4 -10 -1 -10 2 0 11 -3 20 -6 11 -4 16 -1 16 10
0 18 -25 22 -35 6z"/>
<path d="M3230 2690 c0 -11 6 -20 14 -20 24 0 28 18 6 30 -17 9 -20 8 -20 -10z"/>
<path d="M3530 2701 c0 -5 5 -13 10 -16 6 -3 10 -2 10 4 0 5 -4 13 -10 16 -5
3 -10 2 -10 -4z"/>
<path d="M3454 2688 c3 -17 36 -23 36 -8 0 7 -6 10 -14 7 -8 -3 -17 -2 -20 4
-2 5 -3 4 -2 -3z"/>
<path d="M3390 2676 c0 -16 27 -29 35 -16 3 5 -4 14 -15 20 -16 8 -20 8 -20
-4z"/>
<path d="M3322 2658 c3 -7 13 -15 22 -16 12 -3 17 1 14 10 -3 7 -13 15 -22 16
-12 3 -17 -1 -14 -10z"/>
<path d="M3275 2650 c-8 -13 3 -30 21 -30 18 0 18 14 0 29 -10 8 -16 9 -21 1z"/>
<path d="M3635 2650 c3 -5 8 -10 11 -10 2 0 4 5 4 10 0 6 -5 10 -11 10 -5 0
-7 -4 -4 -10z"/>
<path d="M3365 2610 c-3 -5 -1 -10 4 -10 6 0 11 5 11 10 0 6 -2 10 -4 10 -3 0
-8 -4 -11 -10z"/>
</g>
</svg>
